PathFileType	4	(X/Y/Z)	pose2sim_0-881.trc
DataRate	CameraRate	NumFrames	NumMarkers	Units	OrigDataRate	OrigDataStartFrame	OrigNumFrames
50	50	6	22	m	50	441	882
Frame#	Time	Hip			RHip			RKnee			RAnkle			RBigToe			RSmallToe			RHeel			LHip			LKnee			LAnkle			LBigToe			LSmallToe			LHeel			Neck			Head			Nose			RShoulder			RElbow			RWrist			LShoulder			LElbow			LWrist			
		X1	Y1	Z1	X2	Y2	Z2	X3	Y3	Z3	X4	Y4	Z4	X5	Y5	Z5	X6	Y6	Z6	X7	Y7	Z7	X8	Y8	Z8	X9	Y9	Z9	X10	Y10	Z10	X11	Y11	Z11	X12	Y12	Z12	X13	Y13	Z13	X14	Y14	Z14	X15	Y15	Z15	X16	Y16	Z16	X17	Y17	Z17	X18	Y18	Z18	X19	Y19	Z19	X20	Y20	Z20	X21	Y21	Z21	X22	Y22	Z22	
441	8.82	0.13591067776126137	0.9815252624133999	-0.025093361644906113	0.03655661743194285	0.9685203221123151	-0.020236315021041007	0.016782107756749393	0.5196385679113077	-0.0600506787977591	0.0008661489759318028	0.09322061748486783	-0.09571877169297387	0.012841164785997687	0.035568807291880625	0.102336257755117	-0.03712639888998642	0.03699582508277925	0.058500828380919245	0.0039039074971202706	0.04667100396487832	-0.138631645971849	0.24200675376397407	0.9637561174844308	-0.0427436840151741	0.24001471156698204	0.5176228984301499	-0.09724493954044383	0.24512580542961818	0.09084799519005617	-0.11540224401529062	0.2729679948461473	0.03603237282126403	0.07347678456108543	0.3140201273271113	0.03871222050618885	0.01635400674412248	0.23464618706793855	0.04581865603414636	-0.1525627031674263	0.1467369411467461	1.5778031290869134	-0.04524419909236556	0.14400709669115733	1.8298043958203956	-0.0006438488595789502	0.13995507356851133	1.6986729557886606	0.10897190136667008	-0.0042309126000674825	1.4835581163472795	-0.03534533543503805	-0.07718974304343362	1.258369323806667	0.11933710569901573	-0.04369537930176721	1.495767248244659	0.17410291260755895	0.3037104967408072	1.4841500974568538	-0.06752862027717124	0.3785372667554873	1.2743079867143339	0.08446700479180567	0.3460430086873721	1.5001896420195797	0.13285499273745674
442	8.84	0.13619572313074416	0.9803997051602221	-0.023489177141655597	0.0348313252985896	0.9675734015225533	-0.019193126996682176	0.014630440858816401	0.5185604283862273	-0.058088840628151624	-0.001116063965096178	0.09269137016940833	-0.0958959573522094	0.014199535575757346	0.036433479448774085	0.1012727839634693	-0.04062305627306265	0.037761623667181735	0.055166078523687934	0.00393421077187956	0.047155584985514545	-0.13841954023609265	0.24107090507859777	0.9623273873662781	-0.043091665800715925	0.24039011850865855	0.5150421946735338	-0.09518870419963292	0.24417849385994814	0.08862562090660389	-0.1145986991884452	0.2743940767710418	0.03517532968910759	0.07620231789757745	0.313663907007828	0.038063782496175265	0.017713837475733255	0.23390034930623516	0.046223707820808306	-0.1501813694668351	0.1470190655388145	1.5785430733881958	-0.04322156441623351	0.14532429328100357	1.829259022497975	-0.000748946430828966	0.13318050552279861	1.6992244276518085	0.1002286851608055	-0.003966606720315379	1.4827722556243486	-0.041646830596464325	-0.07956530190632094	1.2639404097683553	0.1153995525282297	-0.049191249763652516	1.4961374936703076	0.16472678555066736	0.30315665546768694	1.484528466019037	-0.06942703753286188	0.3788771854064246	1.2764773023611533	0.08936595419692749	0.34703529440590464	1.497134965337043	0.14181955225152923
443	8.86	0.13372835387386883	0.9795314692887	-0.026819400256205907	0.035589788539918475	0.9655689607730839	-0.019114852225469412	0.01552046696370003	0.518299602636436	-0.05749140196660223	0.0012210250142976763	0.09149598958484088	-0.09665721680106777	0.01640843938245989	0.03551482566020092	0.09952620875486651	-0.03821871221564086	0.035460424307212274	0.06039178119581635	0.0028680139771207827	0.046124532405542214	-0.13914025103618877	0.2402784181169848	0.963248609466349	-0.045881441400112466	0.24103718615985373	0.5161271896783334	-0.09888290809285906	0.24316507614863328	0.09073127401003199	-0.11883417748102892	0.2767355407053507	0.0327852496954126	0.0759274632726982	0.31593613656389247	0.03828569561026036	0.017397310247839165	0.23342124246277632	0.04497771678892704	-0.1470297438834123	0.14628960913485128	1.5797746439792633	-0.04458400640886345	0.14626133237034455	1.8313715949133766	0.0004473399618917221	0.13710184763789074	1.698476880986366	0.10109702934028235	-0.0028507723762476104	1.4811272873412524	-0.03976898703952901	-0.07863629733108343	1.2674577364831259	0.1164435136906799	-0.04704199685833041	1.4983761420816541	0.1616886443330092	0.3022891966105866	1.4845748774907277	-0.07120965888202892	0.37666911876826414	1.2753562542565178	0.08876368752448598	0.348860794285077	1.4986332821330113	0.13312089925795817
444	8.88	0.13611959892357298	0.9862587563002028	-0.015384436034426014	0.035847764763291705	0.9684904228195211	-0.00977896424571988	0.015377240750001096	0.517203957274299	-0.05555208784870096	0.0034552753158100203	0.09624468269503003	-0.08618279719216711	0.00933147942153355	0.04595451028030191	0.10953340130086163	-0.03618919441843211	0.03945449040808482	0.05907096090980549	0.012317290214762262	0.04681196197860355	-0.12517683112328257	0.2377272621541444	0.963961143483487	-0.027487232769411434	0.24000552348966522	0.511914453258922	-0.09136379447925613	0.24386571763015513	0.09127134589678683	-0.11366824468087644	0.2726476405387537	0.04297503322393613	0.0869338402984061	0.311738115082388	0.037913828840894684	0.024545107553133286	0.23616615389006404	0.045187901097994254	-0.1485832801807168	0.15213480583363584	1.5751665002237567	-0.048297961400485236	0.1507572689572883	1.82267758993538	-0.0011706645677339788	0.1440665240183352	1.693952827686515	0.11131099452445746	-0.005930963506499141	1.4784213230253647	-0.04283730078361228	-0.07817337166118052	1.2681647648397212	0.13040062274118286	-0.04876290198978634	1.5072411243176282	0.1420580390792367	0.3078293876106126	1.4800192538229917	-0.06522565116434546	0.37303264549638354	1.2825003219073285	0.09978795701383059	0.3420620164580006	1.508479954309719	0.14194975154531206
445	8.9	0.13507406330725302	0.9802505960810872	-0.020107902203004905	0.03438860829814688	0.9659214144034656	-0.013375945616668715	0.012740297360925528	0.518000125758992	-0.05555026752244419	0.0016024490022828158	0.09351845866944292	-0.09644112967633679	0.014113294451481883	0.038798330977539014	0.10200616463410087	-0.037780607492271495	0.03859776626442554	0.057468731837195364	0.002863173724335568	0.04829521614636845	-0.13826752584010635	0.23969269582803845	0.9626050445267811	-0.03606894967497999	0.24010478824817533	0.5154447757170024	-0.08980379000999751	0.24537771556552362	0.08933255840305582	-0.11359352720609339	0.2750696937727098	0.037313902972873986	0.07637665870270977	0.3142481261854256	0.038909128530926124	0.01662421251221355	0.23822064652329134	0.04404263221489127	-0.14980859954670459	0.14680102385093655	1.5778205030533359	-0.045979819446366366	0.14714796816906545	1.8281753228970332	-0.0009801494362948109	0.13979498689481934	1.698568473199834	0.10616808165250939	-0.004178297227885604	1.4837480208228553	-0.043875410208512614	-0.07869917651551911	1.2750013874410244	0.12491104990620447	-0.04202664068010956	1.506878642757327	0.16502600907437873	0.30036566874452797	1.4829940505532517	-0.07474399743863519	0.38007746861625497	1.2814184540812794	0.08803144823162576	0.3520379334259921	1.5004748931194785	0.13786631852292996
446	8.92	0.13417239896399558	0.9779845494173749	-0.021537642784563438	0.034638449315278624	0.966190329550534	-0.016190633439882265	0.01264175570279585	0.518395344254253	-0.05687449249045443	0.00014256588532361858	0.09273816307373514	-0.0949013228418702	0.015516554885923075	0.03654109495328686	0.1017628033567241	-0.03892544830469471	0.037765337731252104	0.06373904107398622	0.0017571339302951566	0.045939453650838416	-0.1359645715016734	0.24100591434514596	0.9627838936205534	-0.04023774545352352	0.24158669337667443	0.5160529049044918	-0.09257438057593084	0.2439466995061201	0.09036546629197888	-0.11276227713311991	0.26927726578244837	0.03389450876640294	0.07873361903851465	0.31111867120273473	0.03897779126638848	0.018024888590831033	0.23507244784233275	0.04474558966473341	-0.15132514083243587	0.14767461140138338	1.5771612494652885	-0.048868810982402276	0.14768524262933044	1.8264159642424125	-0.0032674041710611655	0.13006266636451216	1.6976523158626957	0.09184835978309241	-0.005415511295499196	1.4838282014486461	-0.042035742582818184	-0.07994352526321058	1.2796522394657113	0.13017070669858233	-0.04121181738174565	1.5122854383032607	0.16683088448156236	0.30077182144363473	1.4829691659934645	-0.07519841766540471	0.37801131243883024	1.2813931129238199	0.0863926933680561	0.3520357092451867	1.5063571290426123	0.1414443349538507
